# xmcd
#
# Track frame offsets:
# 150
# 22355
# 41098
# 60153
# 80227
# 97695
# 113139
# 126919
# 153688
# 166722
# 183931
# 201295
# 216321
# 238639
# 257579
# 272379
#
# Disc length: 3832 seconds
#
#
# Revision: 2
# Processed by: cddbd v1.5.1PL2 Copyright (c) Steve Scherf et al.
# Submitted via: FreeRIP 2.941 
#
DISCID=da0ef610
DTITLE=Michael Barclay - Blue Eyed Blues
DYEAR=2005
DGENRE=Blues
TTITLE0=Give It To Me Straight
TTITLE1=Drown In My Own Tears
TTITLE2=Mama's Cadillac
TTITLE3=Desparate Man
TTITLE4=Orphan
TTITLE5=A Diary of the Blues
TTITLE6=Maintenance Man
TTITLE7=Old Love
TTITLE8=Stinky
TTITLE9=My Pretty Angel
TTITLE10=Shake It Loose
TTITLE11=Nylons and Heels
TTITLE12=Just Can't Quit the Blues
TTITLE13=The Shoe is on the Other Foot
TTITLE14=NY Blues
TTITLE15=Who's Stalkin' Who
EXTD=As heard on\nBluesfestRadio.com
EXTT0=
EXTT1=
EXTT2=
EXTT3=
EXTT4=
EXTT5=
EXTT6=
EXTT7=
EXTT8=
EXTT9=
EXTT10=
EXTT11=
EXTT12=
EXTT13=
EXTT14=
EXTT15=
PLAYORDER=
